<?xml version="1.0" encoding="utf-8"?>
<!-- Generator: Adobe Illustrator 24.1.0, SVG Export Plug-In . SVG Version: 6.00 Build 0)  -->
<svg version="1.1" id="Layer_1" xmlns="http://www.w3.org/2000/svg" xmlns:xlink="http://www.w3.org/1999/xlink" x="0px" y="0px"
	 viewBox="0 0 663 121" style="enable-background:new 0 0 663 121;" xml:space="preserve">
<style type="text/css">
	.st0{fill:#3753FA;}
	.st1{fill:#FFFFFF;}
	.st2{fill:none;}
</style>
<path class="st0" d="M64.92,86.76c0-12.55-10.28-23.2-23.21-23.2h-8.76c-1.52,0.38-2.28-0.76-2.28-1.9c0-1.14,0.76-2.28,2.28-2.28
	c0,0,0,0,0.38,0h31.96c0-11.41-9.52-20.91-20.92-20.91H32.95c-12.94,0-23.21,10.27-23.21,23.2c0,12.93,10.28,22.82,23.21,22.82h8.76
	c1.14,0,2.28,0.76,2.28,2.28c0,1.52-0.76,2.28-2.28,2.28c0,0,0,0-0.38,0H16.59c-0.76,9.13-5.7,17.87-13.7,20.91H41.7
	C54.26,109.96,64.92,99.69,64.92,86.76"/>
<g>
	<path class="st0" d="M179.91,45.59c4.33,2.47,8.04,6.18,10.51,10.51c2.47,4.33,3.71,9.9,3.71,15.46c0,6.18-1.24,11.13-3.71,16.07
		c-2.47,4.33-6.18,8.04-10.51,10.51c-4.33,1.86-9.27,3.09-15.46,3.09c-5.57,0-10.51-1.24-14.84-3.71
		c-4.33-2.47-8.04-6.18-10.51-10.51c-2.47-4.33-3.71-9.9-3.71-16.07c0-6.17,1.24-11.13,3.71-15.46c2.47-4.33,6.18-8.04,10.51-10.51
		s9.27-3.71,14.84-3.71C170.63,41.88,175.58,43.12,179.91,45.59z M156.42,54.86c-2.47,1.24-4.94,3.71-6.18,6.18
		c-1.86,3.09-2.47,6.18-2.47,10.51c0,4.33,0.62,8.04,2.47,10.51c1.86,3.09,3.71,4.94,6.18,6.18s5.57,1.86,8.66,1.86
		s6.18-0.62,8.66-1.86s4.94-3.71,6.18-6.18c1.86-3.09,2.47-6.18,2.47-10.51c0-4.33-0.62-8.04-2.47-10.51
		c-1.86-2.47-3.71-4.94-6.18-6.18c-2.47-1.24-5.57-1.86-8.66-1.86C161.36,52.39,158.89,53,156.42,54.86z M252.86,48.06
		c4.94,3.71,8.04,9.27,9.27,16.07h-12.98c-0.62-3.71-2.47-6.8-4.94-8.66c-2.47-1.86-6.18-3.09-9.9-3.09
		c-4.33,0-8.66,1.86-11.74,4.94s-4.33,8.04-4.33,14.22c0,6.18,1.24,11.13,4.33,14.22c3.09,3.1,6.8,4.94,11.74,4.94
		c4.33,0,7.42-1.24,9.9-3.09c2.47-1.86,4.33-4.94,4.94-8.66h12.98c-1.24,6.8-4.33,12.37-9.27,16.07s-11.13,6.18-18.55,6.18
		c-5.57,0-10.51-1.24-14.84-3.71c-4.33-2.47-8.04-6.18-9.9-10.51c-2.47-4.33-3.71-9.9-3.71-16.07c0-6.18,1.24-11.13,3.71-15.46
		c1.86-3.71,5.57-7.42,9.9-9.9c4.33-2.47,9.27-3.71,14.84-3.71C241.73,41.88,247.92,44.35,252.86,48.06L252.86,48.06z M276.36,20.85
		c1.24-1.24,3.09-1.86,5.57-1.86c2.47,0,4.33,0.62,5.57,1.86c1.24,1.24,1.86,3.09,1.86,4.94c0,1.86-0.62,3.71-1.86,4.94
		c-1.24,1.24-3.09,1.86-5.57,1.86c-2.47,0-4.33-0.62-5.57-1.86c-1.24-1.24-1.86-3.09-1.86-4.94
		C274.5,23.94,275.12,22.09,276.36,20.85z M288.11,43.12v58.12h-11.74V43.12L288.11,43.12L288.11,43.12z M341.9,46.2
		c3.71,2.47,6.18,6.18,8.04,10.51v-13.6h11.74v58.12h-11.74v-13.6c-1.24,4.33-4.33,8.04-8.04,10.51c-3.71,2.47-8.04,3.71-13.6,3.71
		c-4.94,0-9.27-1.24-13.6-3.71c-3.71-2.47-6.8-5.57-9.27-10.51c-2.47-4.94-3.09-9.9-3.09-16.07c0-6.18,1.24-11.13,3.09-15.46
		c2.47-4.33,5.57-8.04,9.27-10.51s8.66-3.71,13.6-3.71C333.86,41.88,338.19,43.73,341.9,46.2L341.9,46.2z M319.63,57.95
		c-3.09,3.09-4.94,8.04-4.94,14.22c0,6.18,1.86,10.51,4.94,14.22c3.09,3.71,7.42,4.94,12.98,4.94c3.09,0,6.18-0.62,9.27-2.47
		c2.47-1.86,4.94-3.71,6.18-6.8c1.24-3.09,2.47-6.18,2.47-9.9c0-3.71-0.62-7.42-2.47-9.9c-1.86-2.47-3.71-4.94-6.18-6.8
		c-2.47-1.86-5.57-2.47-9.27-2.47C327.06,52.39,322.73,54.24,319.63,57.95z M390.74,22.71v77.9h-11.74v-77.9H390.74L390.74,22.71z
		 M457.51,69.08c2.47,3.09,4.33,7.42,4.33,11.74c0,6.18-1.86,11.13-6.18,14.84c-4.33,3.71-9.9,5.57-17.93,5.57h-29.68V27.05h29.05
		c7.42,0,12.98,1.86,17.31,4.94c3.71,3.09,6.18,8.04,6.18,13.6c0,4.94-1.24,8.66-3.71,11.13c-2.47,2.47-5.57,4.94-9.9,5.57
		C451.33,63.52,455.04,65.37,457.51,69.08z M419.8,58.57h14.84c4.33,0,7.42-1.24,9.9-3.09c2.47-1.86,3.09-4.94,3.09-8.04
		c0-3.71-1.24-6.18-3.09-8.04c-2.47-1.86-5.57-3.09-9.9-3.09h-14.22L419.8,58.57L419.8,58.57z M445.77,87.63
		c2.47-1.86,3.71-4.94,3.71-8.66s-1.24-6.8-3.71-8.66c-2.47-1.86-6.18-3.09-10.51-3.09h-14.84v23.5h14.84
		C439.58,90.72,443.29,90.1,445.77,87.63z M517.48,45.59c4.33,2.47,8.04,5.57,10.51,10.51c2.47,4.33,3.71,9.9,3.71,15.46
		c0,6.18-1.24,11.13-3.71,16.07c-2.47,4.33-6.18,8.04-10.51,10.51c-4.33,2.47-9.27,3.71-14.84,3.71s-10.51-1.24-14.84-3.71
		c-4.33-2.47-8.04-6.18-10.51-10.51s-3.71-9.9-3.71-16.07c0-6.18,1.24-11.13,3.71-15.46s6.18-8.04,10.51-10.51
		c4.33-2.47,9.27-3.71,14.84-3.71C507.59,41.88,512.54,43.12,517.48,45.59z M493.37,54.86c-2.47,1.24-4.94,3.71-6.18,6.18
		c-1.86,3.09-2.47,6.18-2.47,10.51c0,4.33,0.62,8.04,2.47,10.51c1.86,3.09,3.71,4.94,6.18,6.18c2.47,1.24,5.57,1.86,8.66,1.86
		s6.18-0.62,8.66-1.86c2.47-1.24,4.94-3.71,6.18-6.18c1.86-3.09,2.47-6.18,2.47-10.51c0-4.33-0.62-8.04-2.47-10.51
		s-3.71-4.94-6.18-6.18c-2.47-1.24-5.57-1.86-8.66-1.86C498.93,52.39,495.84,53,493.37,54.86z M587.34,45.59
		c4.33,2.47,8.04,5.57,10.51,10.51c2.47,4.33,3.71,9.9,3.71,15.46c0,6.18-1.24,11.13-3.71,16.07c-2.47,4.33-6.18,8.04-10.51,10.51
		c-4.33,2.47-9.27,3.71-14.84,3.71c-5.57,0-10.51-1.24-14.84-3.71c-4.33-2.47-8.04-6.18-10.51-10.51s-3.71-9.9-3.71-16.07
		c0-6.18,1.24-11.13,3.71-15.46s6.18-8.04,10.51-10.51c4.33-2.47,9.27-3.71,14.84-3.71S583.02,43.12,587.34,45.59L587.34,45.59z
		 M563.85,54.86c-2.47,1.24-4.94,3.71-6.18,6.18c-1.86,3.09-2.47,6.18-2.47,10.51c0,4.33,0.62,8.04,2.47,10.51
		c1.86,3.09,3.71,4.94,6.18,6.18s5.57,1.86,8.66,1.86c3.09,0,6.18-0.62,8.66-1.86s4.94-3.71,6.18-6.18
		c1.86-3.09,2.47-6.18,2.47-10.51c0-4.33-0.62-8.04-2.47-10.51c-1.86-2.47-3.71-4.94-6.18-6.18c-2.47-1.24-5.57-1.86-8.66-1.86
		C568.8,52.39,566.33,53,563.85,54.86z M648.56,100.61l-21.02-25.97v25.97h-11.74v-77.9h11.74v44.52l20.4-24.73h14.22l-25.35,29.05
		l25.97,29.05L648.56,100.61L648.56,100.61z"/>
	<path class="st0" d="M66.71,121L66.71,121c-33.3,0-60.3-27-60.3-60.3l0,0c0-33.3,27-60.3,60.3-60.3l0,0c33.3,0,60.3,27,60.3,60.3
		l0,0C127.01,94,100.01,121,66.71,121z"/>
</g>
<path class="st1" d="M95.72,73.25c0-12.55-10.28-23.2-23.21-23.2h-8.76c-1.52,0.38-2.28-0.76-2.28-1.9s0.76-2.28,2.28-2.28
	c0,0,0,0,0.38,0h31.96c0-11.41-9.52-20.91-20.92-20.91H63.75c-12.94,0-23.21,10.27-23.21,23.2s10.28,22.82,23.21,22.82h8.76
	c1.14,0,2.28,0.76,2.28,2.28s-0.76,2.28-2.28,2.28c0,0,0,0-0.38,0H47.39c-0.76,9.13-5.7,17.87-13.7,20.91H72.5
	C85.06,96.45,95.72,86.18,95.72,73.25"/>
<rect id="_x3C_Slice_x3E_" x="6" class="st2" width="657" height="121"/>
</svg>
